<svg xmlns="http://www.w3.org/2000/svg" version="1.1" viewBox="0 0 500 500" height="500pt" width="500pt" style="color: rgb(184, 191, 198); background: rgb(54, 59, 64);">
  <g>
  <path d="M 249.02 6.04 C 250.63 5.50 252.27 6.15 253.84 6.49 C 259.84 8.03 265.91 9.26 271.90 10.82 C 276.48 13.95 281.09 17.11 285.40 20.62 C 349.41 84.62 413.40 148.64 477.43 212.63 C 480.83 215.59 483.07 219.57 485.79 223.12 C 487.24 225.30 489.26 227.26 489.73 229.94 C 491.33 236.60 492.86 243.28 494.72 249.87 C 492.59 257.04 491.20 264.40 489.18 271.60 C 486.49 275.82 483.40 279.80 480.46 283.86 C 415.71 348.62 350.93 413.37 286.19 478.14 C 281.86 481.81 277.10 484.97 272.47 488.23 C 265.29 490.18 257.98 491.65 250.81 493.63 C 244.14 492.25 237.56 490.30 230.88 488.92 C 227.54 488.52 225.15 485.99 222.50 484.21 C 218.95 481.56 215.08 479.26 212.14 475.88 C 148.38 412.04 84.54 348.27 20.74 284.46 C 17.52 280.33 14.48 276.02 11.54 271.68 C 9.58 264.48 8.08 257.14 6.37 249.87 C 7.35 244.77 8.90 239.79 9.77 234.67 L 10.12 234.10 C 10.66 231.33 10.89 228.25 12.85 226.04 C 15.67 222.45 18.02 218.50 20.97 215.02 C 83.84 152.22 146.65 89.35 209.49 26.53 C 215.02 20.23 221.94 15.48 228.86 10.84 C 235.57 9.20 242.32 7.73 249.02 6.04 M 250.25 53.64 C 248.31 55.90 246.15 57.96 244.04 60.07 C 196.88 107.23 149.72 154.39 102.56 201.56 C 86.32 217.65 70.35 234.03 53.95 249.96 C 57.16 252.06 59.52 255.13 62.29 257.73 C 111.29 306.72 160.30 355.72 209.28 404.73 C 222.86 418.47 236.82 431.87 250.12 445.87 C 263.67 432.83 276.75 419.30 290.13 406.09 C 341.45 354.74 392.81 303.43 444.12 252.07 C 444.98 251.28 445.90 250.56 446.89 249.93 C 431.33 234.90 416.26 219.38 400.89 204.16 C 350.66 154.00 300.58 103.70 250.25 53.64 Z" opacity="1.00" fill="#ffffff"></path>
  <path d="M 242.02 160.97 C 257.41 159.40 273.12 162.36 287.20 168.67 C 308.59 178.40 325.79 196.96 333.73 219.09 C 339.09 234.01 340.72 250.38 337.49 265.96 C 332.59 293.17 313.96 317.31 289.09 329.27 C 281.20 333.04 272.81 335.69 264.19 337.14 C 245.68 340.18 226.30 336.86 209.64 328.30 C 189.47 317.97 173.55 299.60 166.36 278.09 C 161.24 263.34 159.94 247.21 163.29 231.93 C 167.61 210.47 180.07 190.73 197.81 177.87 C 210.66 168.37 226.15 162.61 242.02 160.97 Z" opacity="1.00" fill="#ffffff"></path>
  </g>
  </svg>